<?xml version="1.0" encoding="utf-8"?>
<!-- Generator: Adobe Illustrator 24.0.3, SVG Export Plug-In . SVG Version: 6.00 Build 0)  -->
<svg version="1.1" id="Layer_1" xmlns="http://www.w3.org/2000/svg" xmlns:xlink="http://www.w3.org/1999/xlink" x="0px" y="0px"
	 viewBox="0 0 190 57" style="enable-background:new 0 0 190 57;" xml:space="preserve">
<style type="text/css">
	.st0{fill:#EEE81A;}
	.st1{fill:#3F62AD;}
	.st2{fill-rule:evenodd;clip-rule:evenodd;fill:#EC1E24;}
</style>
<g>
	<path class="st0" d="M109.4,12.3c0,0-0.3-1.1,1-1.1c1.2,0,1.1,1.3,1.1,1.8c-0.1,0.6,0,1.1,0.6,1.3c0.6,0.2,0.9,0.1,0.8,0.7
		s-1.2,0.7-1,1.4c0.1,0.7,0.1,1.3-0.6,1.5c-0.7,0.2-1.3-0.8-1.3-0.8s-0.4,1.4-1,1.4c-0.6,0-1.2-0.7-0.6-1.8c0.6-1.1,0.3-1.3-0.1-1.2
		c-0.4,0.1-1.5,0-1.2-1.4c0,0-0.1-0.9,0.9-0.9S109.6,14.2,109.4,12.3z"/>
	<path class="st1" d="M101.7,11.2c0,0,1-0.1,1.2-0.5c0.3-0.5,0.5-0.8,1.1-0.6c0.5,0.2,0.4,0.7,0.5,1.1c0.1,0.4,0.4,0.5,0.9,0.2
		s2.2,0.7-0.2,1.8c0,0-1,0.1-0.7,0.7c0.3,0.6,0.9,0.6,0.4,1.5c-0.6,0.9-1.8,0.8-2-0.2s-1.3-0.3-1.5,0.2s-1.7,1.1-1.8-0.8
		c0,0,0.1-0.8,0.7-1s1.1-0.7,0.6-1.4C100.2,11.2,101.2,10.5,101.7,11.2z"/>
	<path class="st2" d="M94.2,12.1c0,0,5.1-7.3,11.1-8c6-0.7,11,4,11.4,8.5c0.4,4.5-5.2,13.8-6.2,15.3l-0.9,1.3l-1.5,2.4l-1.1,1.2
		h-0.2l-0.3-0.3l-0.4,0.3l0,0.5l-0.2,0.3l-0.5,0.4l-0.3,0.5l-0.2,0.5l-0.3,0.8l-0.4,0.8l-0.5,0.3l-0.3-0.2l0,0.7l-0.3,0.3
		c0,0,0,0.1-0.1,0.2c-0.1,0.2-0.3,0.6-0.3,0.6l-0.2,0.5c0,0-0.1,0.4-0.1,0.5c0,0.1-0.1,0.5-0.1,0.6s-0.1,0.6-0.1,0.6
		s-0.3,0.6-0.3,0.7s-0.1,0.8-0.1,0.8l0.2,1.1l0.3,1.1l0.7,1.3l0.3,0.7l0.5,0.7l0.5,0.3l0.4,0.3L105,48l0,0.3l0.5,0.7l0.4,0.4
		l0.2,0.4l0.4,0.2l0.3,0.2l0.2,0.4l0.4,0.4l0.4,0.2l0.1,0.4l0,0.4l-0.3,0.3l-0.5-0.6l-0.3-0.2l-0.3-0.4l-0.3-0.3l-0.3-0.4l-0.3-0.3
		l-0.6-0.2l-0.3,0.1l-0.1-0.4l-0.4-0.2l-0.4-0.3l-0.2-0.5l-0.1-0.1l-0.4-0.4h-0.2l-0.4-0.3l-0.3-0.3l-0.4-0.4l-0.2-0.5l-0.2-0.5
		l-0.3-0.7l-0.1-0.3l-0.3-0.5l0.1-0.4l-0.2-0.4l-0.3-0.2l-0.1-0.3l-0.1-0.4l-0.1-1.5l-0.2-0.9l0.2-0.9l0.2-0.6l0.3-1l0.2-0.6
		l0.2-0.5l0.1-0.7l0.5-1l0.5-0.5l0.7-0.6c0,0,0.3-0.2,0.4-0.3c0.1-0.1,0.3-0.4,0.3-0.4l0.1-0.7l0.4-0.3l0.3-0.3l0.1-0.3l0.6-0.4
		l0.3-0.1l0.3-0.3l0.4-0.6l0.3-0.6l0.6-0.7l0.2-0.6l0.5-0.6l0.3-0.5l0.1-0.6l0.5-0.2l0.5-0.4l0.5-0.8l0.5-0.6l0.4-0.5l0.2-0.4
		l-0.1-0.6l0.5-0.2l0.2-0.4l0.2-0.4l0.2-0.3l0.2-0.4l0.1-0.2l0.3-0.7l0.2-0.2l0-0.8l0.1-0.3l0.2-0.6l0.1-0.8l0-0.6l0.2-0.5l0.2-0.6
		l0.1-0.4l0.1-0.5l0.1-0.4l0.3-0.9v-0.4l0.1-0.8l0-0.5l-0.1-0.7l-0.1-0.7c0,0-0.7-2.5-4.5-3.7c-3-1-5.9,0-6.9,1
		c-1.5,1.4-3,2.6-3.4,2.8c-0.4,0.2-2.5,1.1-2.6,3.3c0,0,0.2,0.3,0.1,0.5s-0.6,0.6-0.7,1s-0.2,0.6-0.4,1.4s-0.9,2.8-2,2.5
		c0,0-0.2-0.3-0.2-0.7c0-0.5-0.2-0.3-0.2-1s-0.3-1-0.4-1.7c-0.2-0.7-1.3-4.9-3-5.3c-1.3-0.3-3.7,0.4-4.9,1.4c-1.2,1-2.8,2.7-4,5
		s-1.1,4.5,0.5,7.4c1.6,2.8,2.9,3.8,2.9,3.8l0.5,0.3l0.7,0.8l0.9,0.7l0.5,0.4l0.6,0.3l0.4,0.4l0.8,0.5l0.9,0.8l0.5,0.2l0.7,0.5
		l0.5,0.5l1,0.6l0.6,0.5l0.6,0.4l0.5,0.4l1,0.8l0.6,0.6l0.7,0.7l0.7,0.6l0.8,0.7l0.9,1.1l0.3,0.8l0.1,0.3l-0.3-0.1l-0.1,0.5l0.4,0.8
		l0.7,0.6l-0.2,0.6l-0.5-0.3L98.4,43l-0.6-0.9l-0.5-0.5l0-0.7l-0.1-0.5l-0.7-0.2l-0.9-0.5l-0.3-0.5l-0.5-0.7l-0.5-0.2l-0.5-0.1h-0.1
		L93.5,38l-0.3-0.2l-0.1-0.3l-0.6-0.1l-0.5-0.1l-0.9-0.5l-0.3-0.4l-0.6-0.3l-0.4-0.3l-0.4-0.2l-0.3-0.1l-0.5-0.3L88.3,35L88,34.6
		l-0.6-0.3L87,34.2l-0.4-0.1l-0.1-0.3l-0.5-0.2l-0.4-0.1l-0.3-0.2l-0.2-0.2l-0.8-0.5L83.5,32c0,0-1-1-2-2.1c-1-1.1-2-2.3-2.4-3.1
		c-0.5-0.8-1.1-2.4-1.2-2.7c-0.1-0.3-0.2-0.5-0.2-0.5l-0.2-0.8l-0.2-1.2v-0.4V20l0.3-1.1l0.5-2c0,0,1.1-3.2,5.2-6.6s7.5-2.2,8.9-0.8
		C93.5,11,93.8,12.1,94.2,12.1z"/>
</g>
</svg>
