<?xml version="1.0" encoding="utf-8"?>
<!-- Generator: Adobe Illustrator 24.0.3, SVG Export Plug-In . SVG Version: 6.00 Build 0)  -->
<svg version="1.1" id="Layer_1" xmlns="http://www.w3.org/2000/svg" xmlns:xlink="http://www.w3.org/1999/xlink" x="0px" y="0px"
	 viewBox="0 0 190 57" style="enable-background:new 0 0 190 57;" xml:space="preserve">
<style type="text/css">
	.st0{stroke:#000000;stroke-width:0.14;stroke-miterlimit:10;}
	.st1{fill:#EEE81A;}
	.st2{fill:#3F62AD;}
	.st3{fill-rule:evenodd;clip-rule:evenodd;fill:#EC1E24;}
</style>
<g>
	<g>
		<g>
			<path class="st0" d="M87.3,24.7l0.2,0c0.6-0.1,1.5,0.2,1.7,0.9c0,0.1,0.3,1,0.2,1.1c0.5-0.5,1.3-0.9,1.9-1l0.3,0l0,0
				c1.1-0.1,2,0.6,2.1,1.5c0.1,0.6,0,1.2-0.3,2c-0.3,0.7-1.2,2.4-2.8,5.2l-0.6,1.1c-0.5,1.1-0.2,1.4,0.2,1.3c0.2,0,0.1,0,0.6-0.3
				c0.9-0.7,1.6-1.5,2.2-2.4c0.1-0.2,0.2-0.4,0.3-0.5l0.1,0l-0.1,0.4l-0.1,0.2c-0.6,0.9-1,1.7-1.6,2.4c-1,0.9-1.5,1.1-2,1.1l0,0
				c-0.7,0.1-0.8-0.6-0.4-1.9l0.1-0.2c0.3-0.7,1.1-2.3,2.9-5.6l0.4-0.9c0.4-1.3,0.3-1.8-0.1-2.3c-0.3-0.4-0.8-0.6-1.5-0.5l0,0
				c-0.6,0.2-0.9,0.3-1.8,1.1c-0.1,0-0.3,0.6-0.7,1.5c-1.2,2.3-1.8,3.7-3.1,6c-0.4,0.8-0.7,1.1-0.8,1.1c-0.2,0.2-0.5,0.4-0.8,0.6
				l0,0c0,0,0-0.1,0-0.2c2-3.8,3.1-6.1,4.5-8.6l0.1-0.3c0.4-1,0.3-2-0.5-2.3c-0.2,0-0.4-0.1-0.5,0l-0.1,0c-0.6,0.1-1.4,0.5-2.3,1.3
				c-0.3,0.3-0.5,0.7-0.9,1l0,0.1l-0.2,0.6c-1,2.2-1.9,4.2-4.5,8.7c-0.1,0.2-0.5,0.5-1.1,0.9l0,0c0,0,0-0.1,0-0.1
				c0.4-0.9,0.8-2.2,3.2-6.8c0.6-1.1,2.2-3.6,2.1-3.6c0,0-0.5,0.5-0.7,0.6c-0.6,0.3-1,0.4-1.4,0.5l-0.2,0c-0.4-0.1-0.4-0.3-0.2-0.6
				l0.1-0.2c0.3-0.7,0.7-1.1,1.7-1.7c0.4-0.2,0.8-0.2,1-0.3l0.2,0c0.4,0,0.6,0.3,0.5,0.9l0,0c0.3-0.4,0.5-0.5,1.5-1.2
				C86.4,25,86.9,24.8,87.3,24.7z M81.2,27.7l-0.1,0.1c-0.1,0.2,0,0.3,0.2,0.3c0.4,0,0.5-0.1,1.2-0.7c0.2-0.2,0.2-0.3,0.3-0.4
				l0.1-0.3c0.1-0.1,0.3-0.2,0.4-0.2l0.1,0l0,0c0-0.2-0.2-0.2-0.4-0.2l-0.1,0c-0.5,0-0.7,0.2-1.4,0.9C81.4,27.5,81.3,27.6,81.2,27.7
				z"/>
		</g>
		<path class="st0" d="M93.9,32.5c0,0,0-0.1,0.1-0.1l0,0l0,0c0,0,0,0,0,0c0,0,0.1-0.1,0.1-0.1c0,0,0,0,0,0c0,0,0,0,0,0c0,0,0,0,0,0
			c0,0,0,0,0,0l0.1,0c0,0,0.1,0,0.1,0c0.1,0,0.2,0,0.2,0c0,0,0,0,0,0c0,0,0,0,0,0c0,0,0,0,0,0l0,0c0,0-0.1,0.1-0.1,0.3l0,0.1
			c0,0.1-0.1,0.1-0.1,0.2c0,0.1-0.1,0.1-0.1,0.2l-0.1,0.3c-0.1,0.3-0.2,0.5-0.3,0.8c0,0,0,0.1,0,0.1l0,0.1c0,0.1-0.1,0.2-0.1,0.3
			c0,0.1,0,0.1-0.1,0.1c0,0,0,0.1,0,0.1c0,0,0,0,0,0c0,0,0,0,0,0c0,0,0,0,0,0l0,0.1c0,0,0,0.1,0,0.1c0,0.1-0.1,0.2-0.1,0.2
			c0,0,0,0.1,0,0.1c0,0.1,0,0.2-0.1,0.2c0,0.1,0,0.2,0,0.2c0,0.1,0,0.1,0,0.2c0,0.1,0,0.1,0,0.2l0,0l0,0c0,0,0,0,0.1,0
			c0,0,0,0,0.1,0l0,0l0,0c0,0,0,0,0.1,0c0.1,0,0.1,0,0.2-0.1c0,0,0,0,0,0c0,0,0,0,0,0c0,0,0,0,0,0l0,0c0,0,0,0,0.1,0
			c0.1,0,0.1-0.1,0.1-0.1c0,0,0,0,0,0c0.1,0,0.1-0.1,0.2-0.1c0,0,0,0,0,0c0,0,0,0,0.1-0.1c0.1-0.1,0.1-0.1,0.2-0.2c0,0,0,0,0,0l0,0
			l0,0c0,0,0,0,0,0c0,0,0,0,0-0.1c0,0,0.1-0.1,0.1-0.1l0,0c0,0,0.1-0.1,0.1-0.1c0,0,0,0,0,0c0,0,0,0,0,0c0,0,0,0,0.1-0.1l0.1-0.1
			l0,0c0,0,0,0,0,0c0,0,0,0,0,0l0,0c0,0,0,0,0-0.1l0,0c0,0,0,0,0,0c0,0,0,0,0,0c0,0,0,0,0,0c0,0,0,0,0,0l0.1-0.1c0,0,0,0,0,0
			c0,0,0,0,0,0s0,0,0,0c0,0,0,0,0,0c0,0,0,0,0,0l0-0.1c0,0,0,0,0,0c0,0,0,0,0,0c0,0,0.1-0.1,0.1-0.1c0,0,0,0,0-0.1c0,0,0-0.1,0-0.1
			l0,0l0,0c0,0,0,0,0,0c0,0,0,0,0,0c0,0,0,0,0,0c0,0,0,0.1,0,0.1c0,0,0,0,0,0l0,0.1c0,0,0,0,0,0c0,0,0,0,0,0c0,0,0,0,0,0
			c0,0,0,0,0,0l0,0c0,0,0,0.1-0.1,0.1c0,0-0.1,0.1-0.1,0.2c0,0,0,0,0,0c-0.3,0.4-0.6,0.8-0.9,1.2c-0.2,0.2-0.3,0.3-0.5,0.5
			c0,0,0,0,0,0c-0.1,0.1-0.1,0.1-0.2,0.2l0,0c0,0,0,0,0,0c0,0-0.1,0-0.1,0c0,0,0,0-0.1,0l0,0l0,0l0,0c0,0-0.1,0-0.1,0l-0.1,0
			c0,0,0,0,0,0c0,0,0,0,0,0c0,0,0,0,0,0c0,0-0.1,0-0.1,0c-0.1,0-0.1,0-0.2,0c0,0,0,0,0,0c0,0,0,0-0.1,0c0,0,0,0,0,0c0,0,0,0,0,0
			c0,0,0,0,0,0l0,0c0,0-0.1,0-0.1,0c0,0,0,0,0,0c0,0,0,0-0.1-0.1c0,0,0,0,0-0.1c0,0,0,0,0,0c0,0,0,0,0-0.1c0,0,0,0,0,0c0,0,0,0,0,0
			c0,0,0,0,0,0c0-0.1,0-0.2,0-0.3c0-0.2,0-0.4,0-0.6c0-0.1,0-0.4,0.1-0.7c0.1-0.3,0.2-0.6,0.3-0.9c0.1-0.3,0.3-0.6,0.4-0.8
			c0,0,0-0.1,0.1-0.1c0,0,0-0.1,0-0.1c0,0,0,0,0-0.1c0-0.1,0-0.1,0.1-0.2L93.9,32.5z"/>
		<g>
			<path d="M96.1,29.1c0.1,0,0.1,0,0.2,0c0,0,0.1,0,0.1,0c-0.1,0.1-0.1,0.2-0.1,0.2c0,0.1-0.1,0.2-0.1,0.3c-0.1,0.1-0.2,0.2-0.3,0.2
				c-0.1,0-0.2,0.1-0.3,0.1c-0.1,0-0.2,0-0.2,0c-0.1,0-0.1,0-0.1-0.1c0-0.1,0.1-0.2,0.1-0.2c0-0.1,0.1-0.2,0.1-0.2
				c0.1-0.1,0.2-0.2,0.3-0.2C95.9,29.1,96,29.1,96.1,29.1z"/>
		</g>
		<path class="st0" d="M100.6,33.9c0,0.1,0,0.1,0,0.2c0,0.1-0.1,0.2-0.2,0.4c-0.4,0.5-0.8,1-1.2,1.4c-0.4,0.4-0.7,0.6-1,0.7
			c-0.2,0.1-0.3,0.1-0.5,0.2c-0.2,0-0.3,0-0.4,0c-0.1,0-0.2-0.1-0.3-0.2c-0.1-0.1-0.1-0.3-0.1-0.5c0-0.2,0-0.4,0.1-0.7
			c0-0.2,0.1-0.5,0.1-0.7c0-0.1,0.1-0.2,0.1-0.4c0.1-0.2,0.1-0.3,0.2-0.5c0.1-0.2,0.1-0.3,0.2-0.5c0.1-0.1,0.1-0.3,0.1-0.3
			c0-0.1,0.1-0.1,0.1-0.1L98,33c-0.2,0.2-0.4,0.2-0.7,0.2c-0.2,0-0.4-0.1-0.6-0.2c-0.2,0.3-0.4,0.6-0.5,0.9c-0.2,0.3-0.4,0.6-0.6,1
			c0,0.1-0.1,0.1-0.2,0.2c-0.1,0-0.1,0.1-0.2,0.1c-0.1,0-0.1,0-0.1,0c0,0-0.1,0,0,0c0.1-0.2,0.2-0.3,0.3-0.5
			c0.1-0.1,0.2-0.3,0.3-0.4c0.1-0.2,0.3-0.4,0.4-0.7c0.1-0.2,0.2-0.4,0.3-0.6c0.1-0.2,0.2-0.4,0.2-0.6c0.1-0.1,0.1-0.2,0.2-0.3
			c0.1-0.1,0.2-0.1,0.3-0.2c0.1,0,0.2,0,0.2,0c0.1,0,0.1,0,0.1,0c0,0.1,0,0.1,0,0.1c0,0,0,0.1,0,0.2c0,0.1,0,0.1,0.1,0.2
			c0.1,0.1,0.2,0.1,0.4,0.2c0.1,0,0.2,0,0.3,0c0.1,0,0.1-0.1,0.2-0.2c0.1-0.1,0.2-0.1,0.3-0.2c0.1-0.1,0.2-0.1,0.3-0.1
			c0.1,0,0.2,0,0.2,0c0.1,0,0.1,0,0.1,0c0,0.1-0.1,0.2-0.2,0.4c-0.1,0.2-0.2,0.4-0.3,0.7c-0.1,0.3-0.3,0.6-0.4,0.9
			c-0.1,0.3-0.2,0.6-0.3,0.9c-0.1,0.4-0.2,0.7-0.2,0.9c0,0.2,0.1,0.2,0.3,0.2c0.2,0,0.3-0.1,0.5-0.2c0.2-0.1,0.4-0.2,0.6-0.4
			c0.2-0.2,0.4-0.3,0.5-0.5c0.2-0.2,0.3-0.4,0.5-0.6c0.1-0.2,0.3-0.3,0.4-0.5c0.1-0.1,0.2-0.2,0.2-0.3c0-0.1,0.1-0.1,0.1-0.1
			C100.6,33.7,100.6,33.8,100.6,33.9z"/>
		<path class="st0" d="M106.1,34.3c0,0.1,0,0.2-0.1,0.3c-0.1,0.1-0.1,0.2-0.2,0.3c-0.4,0.5-0.8,0.9-1.1,1.2
			c-0.3,0.3-0.7,0.5-0.9,0.6c-0.1,0.1-0.3,0.1-0.4,0.1c-0.1,0-0.3,0-0.4,0c-0.1,0-0.2-0.1-0.2-0.2c-0.1-0.1-0.1-0.3,0-0.5
			c0-0.1,0-0.2,0.1-0.3c0-0.1,0.1-0.2,0.1-0.3c-0.2,0.3-0.4,0.5-0.6,0.6c-0.2,0.1-0.4,0.3-0.5,0.4c-0.2,0.2-0.5,0.3-0.7,0.3
			c-0.3,0.1-0.5,0.1-0.7,0c-0.2,0-0.4-0.1-0.5-0.3c-0.1-0.1-0.2-0.3-0.2-0.6c0-0.3,0-0.5,0.1-0.8c0.1-0.3,0.2-0.5,0.4-0.7
			c0.2-0.2,0.3-0.4,0.5-0.6c0.2-0.2,0.4-0.4,0.5-0.5c0.2-0.1,0.4-0.3,0.6-0.4c0.2-0.1,0.4-0.3,0.6-0.4c0.2-0.1,0.4-0.2,0.6-0.3
			c0.2-0.1,0.4-0.1,0.5-0.1c0.1,0,0.2,0,0.4,0c0.1,0,0.3,0.1,0.4,0.1c0.1,0,0.2,0.1,0.3,0.1c0.1,0,0.1,0.1,0.2,0.1
			c0.1,0,0.2,0,0.3,0c0.1,0,0.1,0,0.1,0.1c0,0.1-0.1,0.2-0.2,0.4c-0.1,0.2-0.2,0.4-0.4,0.7c-0.1,0.3-0.3,0.5-0.4,0.8
			c-0.1,0.3-0.3,0.6-0.4,0.8c-0.2,0.4-0.2,0.7-0.2,0.8c0,0.2,0.1,0.2,0.2,0.2c0.1,0,0.3,0,0.5-0.1c0.2-0.1,0.3-0.2,0.5-0.3
			c0.2-0.1,0.4-0.3,0.5-0.5c0.2-0.2,0.3-0.3,0.5-0.5c0.2-0.2,0.3-0.3,0.4-0.5c0.1-0.1,0.2-0.2,0.2-0.3c0-0.1,0.1-0.1,0.1,0
			C106.2,34.1,106.2,34.2,106.1,34.3z M100.8,36.3c0.2,0,0.4,0,0.6-0.1c0.2-0.1,0.4-0.2,0.6-0.4c0.2-0.2,0.4-0.3,0.6-0.5
			c0.2-0.2,0.4-0.4,0.5-0.6c0-0.1,0.1-0.2,0.1-0.3c0.1-0.1,0.1-0.3,0.2-0.4c0.1-0.1,0.1-0.3,0.2-0.4c0.1-0.1,0.1-0.2,0.2-0.3
			c0-0.1,0.1-0.1,0.1-0.2l0.1-0.1c-0.2-0.1-0.4-0.2-0.6-0.3c-0.2-0.1-0.5-0.1-0.8,0c-0.3,0.1-0.6,0.2-0.8,0.3
			c-0.3,0.1-0.5,0.4-0.8,0.6c-0.2,0.3-0.4,0.6-0.6,0.9c-0.1,0.3-0.2,0.6-0.3,0.9c0,0.3,0,0.5,0.1,0.7
			C100.4,36.2,100.6,36.3,100.8,36.3z"/>
		<path class="st0" d="M111.7,34.2c-0.1,0.1-0.2,0.2-0.4,0.2c-0.2,0-0.3,0.1-0.4,0.1c-0.1,0-0.3,0-0.3,0c-0.1,0-0.2,0-0.3-0.1
			c-0.2,0.3-0.5,0.6-0.7,0.9c-0.2,0.2-0.3,0.3-0.5,0.5c-0.2,0.2-0.4,0.3-0.6,0.4c-0.2,0.1-0.4,0.2-0.5,0.3c-0.2,0.1-0.3,0.1-0.5,0.2
			c-0.2,0-0.4,0.1-0.6,0.1c-0.1,0-0.3,0-0.4,0c-0.1,0-0.2-0.1-0.3-0.1c-0.1-0.1-0.2-0.1-0.2-0.2c-0.1-0.1-0.1-0.3-0.1-0.6
			c0-0.3,0-0.5,0.1-0.9c0.1-0.3,0.1-0.7,0.2-1c0.1-0.4,0.2-0.7,0.3-1.1c0.1-0.3,0.2-0.7,0.3-1c0.1-0.3,0.2-0.6,0.3-0.8
			c0.1-0.3,0.3-0.6,0.4-1c0.2-0.4,0.3-0.7,0.5-1.2c0.2-0.4,0.5-0.9,0.7-1.4c0.3-0.5,0.6-1,1-1.6c0.2-0.3,0.4-0.6,0.7-0.8
			c0.2-0.2,0.4-0.4,0.6-0.4c0.2-0.1,0.3-0.2,0.4-0.2c0.1,0,0.2,0,0.2,0.1c0,0.1,0.1,0.2,0.1,0.3c0,0.6-0.1,1.2-0.4,1.9
			c-0.2,0.7-0.6,1.5-1.2,2.4c-0.2,0.3-0.3,0.5-0.4,0.7c-0.1,0.2-0.2,0.4-0.4,0.6c-0.1,0.2-0.3,0.4-0.4,0.6c-0.2,0.2-0.4,0.5-0.6,0.8
			c-0.1,0.1-0.2,0.3-0.4,0.5c-0.1,0.2-0.3,0.4-0.4,0.6c-0.1,0.1-0.2,0.2-0.3,0.3c-0.1,0.1-0.2,0.3-0.3,0.4c-0.1,0.1-0.2,0.3-0.3,0.5
			c0,0.2-0.1,0.4-0.1,0.6c0,0.2,0,0.4,0,0.5c0,0.2,0.1,0.3,0.1,0.4c0.1,0.1,0.2,0.3,0.3,0.4c0.1,0,0.2,0.1,0.3,0.1
			c0.2,0,0.4,0,0.6-0.1c0.2-0.1,0.5-0.2,0.8-0.4c0.3-0.2,0.6-0.4,0.8-0.7c0.2-0.2,0.3-0.5,0.4-0.7c-0.2-0.1-0.4-0.2-0.5-0.3
			c-0.2-0.1-0.3-0.3-0.4-0.4c-0.1-0.1-0.2-0.3-0.2-0.5c0-0.2,0-0.3,0.1-0.5c0,0,0.1-0.1,0.1-0.2c0.1-0.1,0.1-0.2,0.2-0.2
			c0.1-0.1,0.2-0.1,0.3-0.2c0.1-0.1,0.2-0.1,0.3-0.1c0.1,0,0.3,0,0.4,0c0.1,0,0.2,0.1,0.3,0.2c0.1,0.1,0.2,0.2,0.2,0.3
			c0.1,0.1,0.1,0.2,0.1,0.3c0,0.2,0,0.5-0.1,0.8c-0.1,0.3-0.2,0.5-0.3,0.7c0.1,0,0.3,0,0.4,0c0.1,0,0.3-0.1,0.4-0.1
			c0.1-0.1,0.2-0.1,0.3-0.1s0.1-0.1,0.2-0.2c0.1-0.1,0.1-0.1,0.1-0.2c0,0,0,0.1,0,0.2C111.9,33.9,111.8,34.1,111.7,34.2z
			 M107.8,30.7c-0.1,0.3-0.2,0.5-0.3,0.8c-0.1,0.3-0.2,0.6-0.3,0.8c-0.1,0.3-0.2,0.5-0.3,0.7c-0.1,0.2-0.1,0.4-0.2,0.6
			c0,0,0-0.1,0.1-0.1c0-0.1,0.1-0.1,0.1-0.2c0-0.1,0.1-0.1,0.1-0.2c0-0.1,0.1-0.1,0.1-0.1c0.2-0.3,0.4-0.6,0.6-0.8
			c0.2-0.2,0.3-0.5,0.5-0.7c0.2-0.3,0.3-0.5,0.5-0.7c0.1-0.2,0.3-0.4,0.4-0.6c0.1-0.2,0.2-0.4,0.3-0.6c0.1-0.2,0.2-0.4,0.3-0.6
			c0.3-0.6,0.5-1.1,0.7-1.4c0.2-0.4,0.3-0.7,0.3-0.9c0.1-0.2,0.1-0.4,0.1-0.6c0-0.2,0-0.3,0.1-0.5c0-0.3,0-0.4-0.1-0.4
			c-0.1,0-0.1,0-0.3,0.1c-0.1,0.1-0.2,0.2-0.3,0.4c-0.1,0.2-0.2,0.3-0.3,0.5c-0.1,0.2-0.2,0.3-0.3,0.4c-0.2,0.4-0.4,0.8-0.6,1.2
			c-0.2,0.4-0.4,0.7-0.5,1c-0.2,0.3-0.3,0.6-0.4,0.9C108,30.1,107.9,30.4,107.8,30.7z M109.5,32.5c-0.1,0-0.2,0.1-0.2,0.1
			c-0.1,0.1-0.1,0.2-0.1,0.3c0,0.1,0,0.2,0,0.3c0,0.1,0.1,0.2,0.2,0.4c0.2,0.1,0.4,0.3,0.7,0.4c0-0.1,0.1-0.3,0.1-0.5
			c0-0.2,0-0.4,0-0.5c0-0.2-0.1-0.3-0.2-0.4C109.8,32.5,109.7,32.4,109.5,32.5z"/>
		<path class="st0" d="M115,33.1c-0.3,0.1-0.5,0.3-0.8,0.4c-0.3,0.1-0.5,0.2-0.8,0.3c-0.3,0.1-0.6,0.2-0.9,0.3
			c-0.3,0.1-0.6,0.2-1,0.4c-0.1,0.2-0.1,0.4-0.1,0.5c0,0.2,0,0.3,0,0.5c0,0.1,0.1,0.3,0.2,0.4c0.1,0.1,0.2,0.2,0.3,0.3
			c0.2,0.1,0.4,0.2,0.7,0.2c0.3,0,0.6,0,0.9-0.1c0.3-0.1,0.7-0.2,1.1-0.4c0.4-0.2,0.8-0.5,1.1-0.9c0.2-0.2,0.3-0.4,0.4-0.5
			c0.1-0.1,0.2-0.2,0.2-0.3c0,0,0,0.1-0.1,0.3c0,0.1,0,0.1-0.1,0.2c0,0.1-0.1,0.2-0.2,0.3c-0.1,0.1-0.2,0.2-0.3,0.4
			c-0.1,0.1-0.3,0.3-0.5,0.5c-0.2,0.2-0.5,0.3-0.7,0.5c-0.2,0.1-0.5,0.2-0.7,0.3c-0.2,0.1-0.5,0.2-0.7,0.2c-0.3,0.1-0.5,0.1-0.8,0.1
			c-0.3,0-0.5,0-0.7-0.1c-0.2-0.1-0.4-0.2-0.5-0.3c-0.3-0.3-0.3-0.7-0.2-1.2c0.1-0.5,0.4-1,1-1.6c0.1-0.1,0.2-0.2,0.2-0.2
			c0.1-0.1,0.2-0.1,0.2-0.2c0.2-0.1,0.4-0.3,0.6-0.4c0.2-0.1,0.4-0.2,0.6-0.4c0.2-0.1,0.4-0.2,0.6-0.2c0.2-0.1,0.3-0.1,0.5-0.1
			c0.1,0,0.3,0,0.4,0c0.1,0,0.3,0,0.4,0c0.1,0,0.2,0.1,0.3,0.1c0.1,0.1,0.1,0.1,0.1,0.2c0,0.1-0.1,0.3-0.2,0.4
			C115.4,32.9,115.2,33,115,33.1z M114.7,32.9c0.1-0.1,0.1-0.1,0.2-0.2c0-0.1,0-0.1,0-0.2c0,0-0.1-0.1-0.1-0.1c-0.1,0-0.2,0-0.3,0
			c-0.4,0-0.7,0.1-1.1,0.3c-0.4,0.2-0.7,0.4-1.1,0.8c0,0.1-0.1,0.1-0.2,0.2c-0.1,0.1-0.1,0.1-0.2,0.2c-0.1,0.1-0.1,0.2-0.2,0.2
			c0.6-0.2,1.1-0.5,1.6-0.7C113.9,33.3,114.3,33.1,114.7,32.9z"/>
		<path class="st0" d="M120,34c0,0.1,0,0.2-0.1,0.2c0,0.1-0.1,0.2-0.2,0.3c-0.3,0.4-0.6,0.8-0.8,1.1c-0.3,0.3-0.5,0.5-0.7,0.7
			c-0.2,0.1-0.3,0.2-0.5,0.3c-0.2,0.1-0.4,0.1-0.6,0.1c-0.3,0-0.6-0.1-0.7-0.2c-0.1-0.1-0.2-0.3-0.2-0.6c0-0.3,0-0.5,0.1-0.9
			c0.1-0.3,0.1-0.7,0.2-1.1c0.1-0.4,0.2-0.7,0.4-1.1c0.1-0.4,0.3-0.7,0.4-1c0.1-0.3,0.2-0.6,0.3-0.8c0.1-0.3,0.3-0.6,0.4-0.9
			c0.1-0.3,0.3-0.7,0.5-1.1c0.2-0.4,0.5-0.9,0.7-1.4c0.3-0.5,0.6-1,1-1.6c0.2-0.3,0.4-0.6,0.7-0.8c0.2-0.2,0.4-0.4,0.5-0.4
			c0.2-0.1,0.4-0.2,0.5-0.1c0.1,0.1,0.2,0.2,0.2,0.4c0,0.6-0.2,1.2-0.4,1.9c-0.2,0.7-0.6,1.5-1.1,2.4c-0.2,0.2-0.3,0.5-0.4,0.7
			c-0.1,0.2-0.3,0.4-0.4,0.6c-0.1,0.2-0.3,0.4-0.4,0.6c-0.2,0.2-0.4,0.5-0.6,0.8c-0.1,0.1-0.2,0.3-0.4,0.5c-0.1,0.2-0.3,0.4-0.4,0.6
			c-0.1,0.1-0.2,0.2-0.3,0.3c-0.1,0.1-0.2,0.3-0.3,0.4c-0.1,0.1-0.2,0.3-0.3,0.5c0,0.2-0.1,0.4-0.1,0.6c0,0.2-0.1,0.4-0.1,0.5
			c0,0.2,0,0.3,0,0.5c0,0.1,0.1,0.3,0.2,0.4c0,0,0.1,0.1,0.2,0.1c0.1,0,0.1,0,0.2,0c0.1,0,0.1,0,0.2,0c0.1,0,0.1,0,0.2,0
			c0.1,0,0.3-0.1,0.4-0.2c0.1-0.1,0.3-0.2,0.4-0.4c0.1-0.1,0.3-0.3,0.4-0.5c0.1-0.2,0.3-0.3,0.4-0.5c0.1-0.2,0.2-0.3,0.3-0.5
			c0.1-0.1,0.1-0.2,0.2-0.3c0-0.1,0.1-0.1,0.1,0C120,33.8,120,33.9,120,34z M118.1,30.7c-0.1,0.3-0.2,0.5-0.3,0.8
			c-0.1,0.3-0.2,0.6-0.3,0.8c-0.1,0.3-0.2,0.5-0.2,0.7c-0.1,0.2-0.1,0.4-0.2,0.6c0,0,0-0.1,0.1-0.1c0-0.1,0.1-0.1,0.1-0.2
			c0-0.1,0.1-0.1,0.1-0.2c0-0.1,0.1-0.1,0.1-0.1c0.2-0.3,0.5-0.6,0.6-0.8c0.2-0.2,0.3-0.5,0.5-0.7c0.2-0.3,0.4-0.5,0.5-0.7
			c0.1-0.2,0.3-0.4,0.4-0.6c0.1-0.2,0.2-0.4,0.3-0.6c0.1-0.2,0.2-0.4,0.3-0.6c0.3-0.6,0.6-1.1,0.7-1.5c0.2-0.4,0.3-0.7,0.4-1
			c0.1-0.3,0.1-0.5,0.1-0.6c0-0.2,0-0.3,0.1-0.5c0-0.2,0-0.2-0.1-0.3c0,0-0.1,0-0.2,0.1c-0.1,0.1-0.2,0.2-0.3,0.3
			c-0.1,0.1-0.2,0.3-0.3,0.4c-0.1,0.1-0.2,0.3-0.3,0.4c-0.1,0.1-0.1,0.2-0.2,0.3c-0.2,0.4-0.4,0.8-0.6,1.2c-0.2,0.4-0.4,0.7-0.5,1
			c-0.2,0.3-0.3,0.6-0.4,0.9C118.4,30.1,118.2,30.4,118.1,30.7z"/>
		<path class="st0" d="M123.3,34c0,0.1,0,0.2-0.1,0.2c0,0.1-0.1,0.2-0.2,0.3c-0.3,0.4-0.6,0.8-0.8,1.1c-0.3,0.3-0.5,0.5-0.7,0.7
			c-0.2,0.1-0.3,0.2-0.5,0.3c-0.2,0.1-0.4,0.1-0.6,0.1c-0.3,0-0.6-0.1-0.7-0.2c-0.1-0.1-0.2-0.3-0.2-0.6c0-0.3,0-0.5,0.1-0.9
			c0.1-0.3,0.1-0.7,0.2-1.1c0.1-0.4,0.2-0.7,0.3-1.1c0.1-0.4,0.3-0.7,0.4-1c0.1-0.3,0.2-0.6,0.3-0.8c0.1-0.3,0.3-0.6,0.4-0.9
			c0.1-0.3,0.3-0.7,0.5-1.1c0.2-0.4,0.5-0.9,0.7-1.4c0.3-0.5,0.6-1,1-1.6c0.2-0.3,0.4-0.6,0.7-0.8c0.2-0.2,0.4-0.4,0.5-0.4
			c0.2-0.1,0.4-0.2,0.5-0.1c0.1,0.1,0.2,0.2,0.2,0.4c0,0.6-0.2,1.2-0.4,1.9c-0.2,0.7-0.6,1.5-1.1,2.4c-0.2,0.2-0.3,0.5-0.4,0.7
			c-0.1,0.2-0.3,0.4-0.4,0.6c-0.1,0.2-0.3,0.4-0.4,0.6c-0.2,0.2-0.4,0.5-0.6,0.8c-0.1,0.1-0.2,0.3-0.4,0.5c-0.1,0.2-0.3,0.4-0.4,0.6
			c-0.1,0.1-0.2,0.2-0.3,0.3c-0.1,0.1-0.2,0.3-0.3,0.4c-0.1,0.1-0.2,0.3-0.3,0.5c0,0.2-0.1,0.4-0.1,0.6c0,0.2-0.1,0.4-0.1,0.5
			c0,0.2,0,0.3,0,0.5c0,0.1,0.1,0.3,0.2,0.4c0,0,0.1,0.1,0.2,0.1c0.1,0,0.1,0,0.2,0c0.1,0,0.1,0,0.2,0c0.1,0,0.1,0,0.2,0
			c0.1,0,0.3-0.1,0.4-0.2c0.1-0.1,0.3-0.2,0.4-0.4c0.1-0.1,0.3-0.3,0.4-0.5c0.1-0.2,0.3-0.3,0.4-0.5c0.1-0.2,0.2-0.3,0.3-0.5
			c0.1-0.1,0.1-0.2,0.2-0.3c0-0.1,0.1-0.1,0.1,0C123.3,33.8,123.3,33.9,123.3,34z M121.5,30.7c-0.1,0.3-0.2,0.5-0.3,0.8
			c-0.1,0.3-0.2,0.6-0.3,0.8c-0.1,0.3-0.2,0.5-0.2,0.7c-0.1,0.2-0.1,0.4-0.2,0.6c0,0,0-0.1,0.1-0.1c0-0.1,0.1-0.1,0.1-0.2
			c0-0.1,0.1-0.1,0.1-0.2c0-0.1,0.1-0.1,0.1-0.1c0.2-0.3,0.5-0.6,0.6-0.8c0.2-0.2,0.3-0.5,0.5-0.7c0.2-0.3,0.4-0.5,0.5-0.7
			c0.1-0.2,0.3-0.4,0.4-0.6c0.1-0.2,0.2-0.4,0.3-0.6c0.1-0.2,0.2-0.4,0.3-0.6c0.3-0.6,0.5-1.1,0.7-1.5c0.2-0.4,0.3-0.7,0.4-1
			c0.1-0.3,0.1-0.5,0.1-0.6c0-0.2,0-0.3,0.1-0.5c0-0.2,0-0.2-0.1-0.3c0,0-0.1,0-0.2,0.1c-0.1,0.1-0.2,0.2-0.3,0.3
			c-0.1,0.1-0.2,0.3-0.3,0.4c-0.1,0.1-0.2,0.3-0.3,0.4c-0.1,0.1-0.1,0.2-0.2,0.3c-0.2,0.4-0.4,0.8-0.6,1.2c-0.2,0.4-0.4,0.7-0.5,1
			c-0.2,0.3-0.3,0.6-0.4,0.9C121.7,30.1,121.6,30.4,121.5,30.7z"/>
		<path class="st0" d="M126.7,33c-0.3,0.1-0.5,0.3-0.8,0.4c-0.3,0.1-0.5,0.2-0.8,0.3c-0.3,0.1-0.6,0.2-0.9,0.3
			c-0.3,0.1-0.6,0.2-1,0.4c-0.1,0.2-0.1,0.4-0.1,0.5c0,0.2,0,0.3,0,0.5c0,0.1,0.1,0.3,0.2,0.4c0.1,0.1,0.2,0.2,0.3,0.3
			c0.2,0.1,0.4,0.2,0.7,0.2c0.3,0,0.6,0,0.9-0.1c0.3-0.1,0.7-0.2,1.1-0.4c0.4-0.2,0.8-0.5,1.1-0.9c0.2-0.2,0.3-0.4,0.4-0.5
			c0.1-0.1,0.2-0.2,0.2-0.3c0,0,0,0.1-0.1,0.3c0,0.1,0,0.1-0.1,0.2c0,0.1-0.1,0.2-0.2,0.3c-0.1,0.1-0.2,0.2-0.3,0.4
			c-0.1,0.1-0.3,0.3-0.5,0.5c-0.2,0.2-0.5,0.3-0.7,0.5c-0.2,0.1-0.5,0.2-0.7,0.3c-0.2,0.1-0.5,0.2-0.7,0.2c-0.3,0.1-0.5,0.1-0.8,0.1
			c-0.3,0-0.5,0-0.7-0.1c-0.2-0.1-0.4-0.2-0.5-0.3c-0.3-0.3-0.3-0.7-0.2-1.2c0.1-0.5,0.4-1,1-1.6c0.1-0.1,0.2-0.2,0.2-0.2
			c0.1-0.1,0.2-0.1,0.2-0.2c0.2-0.1,0.4-0.3,0.6-0.4c0.2-0.1,0.4-0.3,0.6-0.4c0.2-0.1,0.4-0.2,0.6-0.2c0.2-0.1,0.3-0.1,0.5-0.1
			c0.1,0,0.3,0,0.4,0c0.1,0,0.3,0,0.4,0c0.1,0,0.2,0.1,0.3,0.1c0.1,0.1,0.1,0.1,0.1,0.2c0,0.1-0.1,0.3-0.2,0.4
			C127.1,32.8,126.9,32.9,126.7,33z M126.4,32.8c0.1-0.1,0.1-0.1,0.2-0.2c0-0.1,0-0.1,0-0.2c0,0-0.1-0.1-0.1-0.1c-0.1,0-0.2,0-0.3,0
			c-0.4,0-0.7,0.1-1.1,0.3c-0.4,0.2-0.7,0.4-1.1,0.8c0,0.1-0.1,0.1-0.2,0.2c-0.1,0.1-0.1,0.1-0.2,0.2c-0.1,0.1-0.1,0.2-0.2,0.2
			c0.6-0.2,1.1-0.5,1.6-0.7C125.6,33.2,126,33,126.4,32.8z"/>
		<g>
			<path class="st0" d="M73,32.8h0.3c1.2,0,2.2,0.7,3.1,2c0.1,0.2,0.2,0.3,0.2,0.5c0.7-0.3,1-0.5,1.1-0.5l0,0.1
				c-0.1,0.1-0.4,0.3-1,0.7c0.4,0.9,0.4,2,0.1,3.1c-0.1,0.5-0.3,1-0.5,1.4l-0.1,0.3c-0.6,1.3-1.7,2.6-3.3,3.8c-1,0.7-2,1.1-3.1,1.1
				c-0.7,0-1.8-0.2-3.4-0.7L66,44.6c-1.2,1.2-2.2,1.8-2.9,1.8h-0.1c-0.4,0-0.6-0.2-0.5-0.7c0,0,0-0.1,0.1-0.2l0.1-0.1
				c0.2-0.3,0.6-0.7,1.2-1.1c0.5-0.3,1.2-0.5,1.9-0.5H66c0,0,0.4-0.4,0.9-1.3c1.1-1.7,2.3-3.8,3.7-6.1l0-0.1l0,0
				c-1-0.5-1.3-1.1-1-1.9c0.3-0.6,1.1-1.2,2.5-1.6C72.5,32.9,72.8,32.8,73,32.8z M63.4,45.2l-0.1,0.1c-0.1,0.4-0.1,0.6,0.2,0.6h0
				c0.4,0,1-0.3,1.6-1l0.3-0.3c-0.2,0-0.5-0.1-0.8-0.1c-0.5,0-0.9,0.2-1.2,0.6L63.4,45.2z M72.4,36.8c-0.4,0-0.8-0.1-1.1-0.2l0,0
				c-0.4,0.7-1.3,2.3-2.7,4.7c-0.6,1-1.2,1.7-1.7,2.3l-0.2,0.2h0c0.2,0,1.2,0.2,3.1,0.5c0.3,0.1,0.6,0.1,0.9,0.1h0.1
				c1.3,0,2.5-0.8,3.7-2.3c0.4-0.5,0.7-1.1,1-1.6c0.8-1.6,0.9-3.1,0.3-4.6C74.6,36.5,73.4,36.8,72.4,36.8z M70.6,34.1l-0.1,0.2
				c-0.2,0.4,0,0.9,0.6,1.3l0.1,0c0.5-1,0.8-1.5,0.9-1.5c0.2-0.2,0.5-0.2,0.6-0.3h0l0,0L72.6,34l-0.9,1.8l0,0.1
				c0.4,0.1,0.9,0.2,1.5,0.2c0.8,0,1.7-0.1,2.6-0.4l0,0c-0.4-0.7-0.8-1.2-1.2-1.6c-0.6-0.4-1.3-0.7-2.3-0.7c-0.4,0-0.8,0.1-1.4,0.4
				C70.7,33.9,70.6,34,70.6,34.1z"/>
		</g>
		<g>
			<path class="st0" d="M79.3,40.6c-0.2,0.1-0.5,0.3-0.7,0.4c-0.2,0.1-0.5,0.2-0.7,0.3c-0.2,0.1-0.5,0.2-0.8,0.3
				c-0.3,0.1-0.6,0.2-0.9,0.4c-0.1,0.2-0.1,0.3-0.1,0.5c0,0.2,0,0.3,0,0.4c0,0.1,0.1,0.2,0.2,0.3c0.1,0.1,0.2,0.2,0.2,0.3
				c0.2,0.1,0.4,0.2,0.6,0.2c0.2,0,0.5,0,0.8-0.1c0.3-0.1,0.6-0.2,1-0.4c0.4-0.2,0.7-0.5,1-0.8c0.2-0.2,0.3-0.4,0.4-0.5
				c0.1-0.1,0.2-0.2,0.2-0.3c0,0,0,0.1-0.1,0.3c0,0.1,0,0.1-0.1,0.2c0,0.1-0.1,0.2-0.2,0.3c-0.1,0.1-0.2,0.2-0.3,0.3
				c-0.1,0.1-0.3,0.3-0.5,0.4c-0.2,0.2-0.4,0.3-0.6,0.4c-0.2,0.1-0.4,0.2-0.6,0.3c-0.2,0.1-0.4,0.1-0.6,0.2c-0.2,0-0.5,0.1-0.7,0.1
				c-0.2,0-0.5,0-0.7-0.1c-0.2-0.1-0.4-0.2-0.5-0.3c-0.2-0.3-0.3-0.7-0.2-1.1c0.1-0.4,0.4-0.9,0.8-1.5c0.1-0.1,0.1-0.1,0.2-0.2
				c0.1-0.1,0.1-0.1,0.2-0.2c0.1-0.1,0.3-0.3,0.5-0.4c0.2-0.1,0.4-0.2,0.5-0.3c0.2-0.1,0.4-0.2,0.5-0.2c0.2-0.1,0.3-0.1,0.4-0.1
				c0.1,0,0.2,0,0.4,0c0.1,0,0.2,0,0.3,0c0.1,0,0.2,0.1,0.2,0.1c0.1,0,0.1,0.1,0.1,0.2c0,0.1-0.1,0.2-0.1,0.3
				C79.6,40.4,79.5,40.5,79.3,40.6z M79,40.4c0.1,0,0.1-0.1,0.1-0.2c0-0.1,0-0.1,0-0.1c0,0-0.1-0.1-0.1-0.1c-0.1,0-0.1,0-0.2,0
				c-0.3,0-0.7,0.1-1,0.3c-0.3,0.2-0.6,0.4-0.9,0.7c0,0-0.1,0.1-0.1,0.2c-0.1,0.1-0.1,0.1-0.1,0.2c0,0.1-0.1,0.1-0.1,0.2
				c0.5-0.2,1-0.4,1.4-0.6C78.3,40.8,78.7,40.6,79,40.4z"/>
			<path class="st0" d="M82.8,43.8c-0.2,0.1-0.5,0.2-0.7,0.2c-0.3,0.1-0.5,0.1-0.7,0.1c-0.2,0-0.5,0-0.7-0.1
				c-0.2-0.1-0.4-0.2-0.5-0.3C80,43.4,79.9,43,80,42.6c0.1-0.4,0.4-0.9,0.8-1.5C80.9,41,81,41,81,40.9c0.1-0.1,0.1-0.1,0.2-0.2
				c0.2-0.1,0.3-0.3,0.5-0.4c0.2-0.1,0.4-0.2,0.5-0.3c0.2-0.1,0.4-0.2,0.5-0.2c0.2-0.1,0.3-0.1,0.4-0.1c0.1,0,0.2,0,0.3,0
				c0.1,0,0.2,0.1,0.3,0.1c0.1,0,0.2,0.1,0.2,0.1c0.1,0,0.1,0.1,0.1,0.1c0,0,0,0.1,0,0.1c0,0.1-0.1,0.1-0.1,0.2
				c0,0.1-0.1,0.1-0.2,0.1c-0.1,0-0.1,0-0.2,0c-0.1,0-0.1,0-0.1-0.1c0,0,0-0.1,0-0.1c0,0,0-0.1,0-0.1c0,0,0,0-0.1-0.1
				c-0.1-0.1-0.3-0.1-0.5-0.1c-0.2,0-0.4,0-0.6,0.1c-0.2,0.1-0.4,0.2-0.6,0.3c-0.2,0.1-0.4,0.3-0.5,0.5c-0.2,0.2-0.4,0.5-0.5,0.7
				c-0.1,0.2-0.2,0.5-0.2,0.7c0,0.2,0,0.4,0.1,0.6c0.1,0.2,0.2,0.3,0.3,0.4c0.2,0.1,0.4,0.2,0.6,0.2c0.2,0,0.5,0,0.8-0.1
				c0.3-0.1,0.7-0.2,1-0.5c0.4-0.2,0.7-0.5,0.9-0.8c0.2-0.2,0.3-0.4,0.4-0.6c0.1-0.2,0.2-0.2,0.2-0.1c0,0.1,0,0.2-0.1,0.2
				c0,0.1,0,0.1-0.1,0.2c-0.1,0.1-0.1,0.2-0.2,0.3c-0.1,0.1-0.2,0.2-0.3,0.4c-0.1,0.1-0.3,0.3-0.4,0.4c-0.2,0.1-0.3,0.3-0.5,0.4
				C83.3,43.5,83.1,43.6,82.8,43.8z"/>
			<path class="st0" d="M89.8,42.1c-0.1,0.1-0.2,0.1-0.3,0.2c-0.1,0-0.2,0-0.4,0c-0.1,0-0.2,0-0.3-0.1c-0.1,0-0.2-0.1-0.2-0.1
				c-0.2,0.3-0.5,0.6-0.7,0.8c-0.2,0.1-0.3,0.3-0.5,0.4c-0.2,0.1-0.3,0.2-0.5,0.3c-0.2,0.1-0.3,0.2-0.5,0.2
				c-0.2,0.1-0.3,0.1-0.4,0.1c-0.1,0-0.1,0-0.2,0c-0.1,0-0.1,0-0.2,0c0,0-0.1,0-0.1,0c0,0-0.1,0-0.1,0c-0.3,0-0.5-0.2-0.7-0.4
				c-0.2-0.3-0.3-0.7-0.2-1.1c0.1-0.4,0.4-0.9,0.8-1.5c0.1-0.1,0.1-0.1,0.2-0.2c0.1-0.1,0.1-0.1,0.2-0.2c0.2-0.1,0.3-0.3,0.5-0.4
				c0.2-0.1,0.4-0.2,0.5-0.3c0.2-0.1,0.3-0.2,0.5-0.2c0.2-0.1,0.3-0.1,0.4-0.1c0.1,0,0.2,0,0.3,0c0.1,0,0.1,0,0.2,0
				c0.1,0,0.1,0,0.2,0c0,0,0.1,0,0.1,0c0,0,0.1,0,0.1,0c0.1,0,0.1,0,0.2,0c0.1,0,0.1,0,0.2,0.1c0.1,0.1,0.2,0.2,0.3,0.3
				c0.1,0.1,0.1,0.3,0.1,0.5c0,0.2-0.1,0.5-0.1,0.7c-0.1,0.2-0.2,0.5-0.3,0.7c0.2,0,0.4,0,0.7,0c0.2-0.1,0.4-0.2,0.5-0.2
				c0.1-0.1,0.1-0.1,0.1-0.1c0,0,0,0.1,0,0.2C90,41.8,89.9,41.9,89.8,42.1z M85.8,43.6c0.1,0,0.2,0,0.4,0c0.2,0,0.3-0.1,0.5-0.1
				c0.2-0.1,0.4-0.2,0.6-0.3c0.2-0.1,0.4-0.3,0.6-0.5c0.2-0.2,0.4-0.4,0.5-0.7c-0.1-0.1-0.3-0.2-0.4-0.4c-0.1-0.1-0.2-0.3-0.3-0.5
				c-0.1-0.2-0.1-0.3-0.1-0.5c0-0.2,0-0.3,0.2-0.5c0,0,0,0,0-0.1c-0.1,0-0.2,0-0.3,0c-0.3,0-0.6,0.1-0.9,0.2
				c-0.3,0.2-0.6,0.4-0.8,0.7c-0.2,0.2-0.4,0.5-0.5,0.7c-0.1,0.2-0.2,0.4-0.2,0.6c0,0.2,0,0.4,0.1,0.5c0.1,0.2,0.1,0.3,0.2,0.4
				c0.1,0.1,0.1,0.2,0.2,0.2C85.6,43.5,85.7,43.6,85.8,43.6z M88.3,40.2c-0.1,0-0.1,0-0.2,0c-0.1,0-0.1,0-0.2,0
				c-0.1,0.1-0.2,0.2-0.2,0.4c0,0.2,0,0.4,0.2,0.6c0.1,0.1,0.1,0.2,0.2,0.2c0.1,0.1,0.2,0.2,0.3,0.2c0.1-0.2,0.1-0.3,0.1-0.5
				c0-0.2,0-0.3,0-0.4c0-0.1,0-0.2-0.1-0.3C88.5,40.4,88.5,40.3,88.3,40.2C88.4,40.2,88.3,40.2,88.3,40.2z"/>
			<path class="st0" d="M95.3,41.7c0,0.1,0,0.1-0.1,0.2c0,0.1-0.1,0.2-0.2,0.3c-0.3,0.5-0.7,0.8-1,1.1c-0.3,0.3-0.6,0.5-0.8,0.6
				C93.1,44,93,44,92.9,44.1c-0.1,0-0.2,0-0.3,0c-0.1,0-0.2-0.1-0.2-0.2c0-0.1-0.1-0.2,0-0.4c0-0.1,0-0.2,0.1-0.3
				c0-0.1,0-0.2,0.1-0.3c-0.2,0.2-0.4,0.4-0.5,0.6c-0.2,0.1-0.3,0.3-0.5,0.4C91.2,43.9,91,44,90.8,44c-0.2,0.1-0.5,0.1-0.6,0
				c-0.2,0-0.4-0.1-0.5-0.3c-0.1-0.1-0.2-0.3-0.2-0.6c0-0.2,0-0.5,0.1-0.7c0.1-0.2,0.2-0.5,0.3-0.7c0-0.1,0.1-0.2,0.2-0.3
				c0.1-0.1,0.1-0.3,0.2-0.4c0.1-0.1,0.2-0.3,0.2-0.4c0.1-0.1,0.1-0.2,0.2-0.3c0.1-0.1,0.1-0.2,0.1-0.3c0-0.1,0-0.1,0.1-0.2
				c0.1-0.1,0.2-0.2,0.3-0.3c0.1-0.1,0.2-0.1,0.3-0.1c0.1,0,0.1,0,0.1,0c0,0,0,0,0,0c-0.3,0.5-0.5,0.9-0.7,1.3
				c-0.2,0.4-0.4,0.9-0.6,1.3c-0.1,0.2-0.1,0.3-0.1,0.5c0,0.2,0,0.3,0,0.4c0,0.1,0.1,0.2,0.2,0.3c0.1,0.1,0.2,0.1,0.3,0.1
				c0.1,0,0.3,0,0.4-0.1c0.1-0.1,0.3-0.1,0.4-0.3c0.1-0.1,0.3-0.2,0.4-0.4c0.1-0.1,0.3-0.3,0.4-0.4c0.1-0.1,0.1-0.2,0.2-0.3
				c0.1-0.1,0.2-0.3,0.3-0.4c0.1-0.1,0.2-0.3,0.2-0.4c0.1-0.1,0.1-0.2,0.2-0.3c0.1-0.1,0.1-0.2,0.2-0.3c0.1-0.1,0.1-0.2,0.2-0.3
				l0.2-0.4c0-0.1,0.1-0.2,0.2-0.3c0.1-0.1,0.2-0.1,0.3-0.1c0.1,0,0.2,0,0.2,0c0.1,0,0.1,0,0.1,0c0,0-0.1,0.1-0.1,0.2
				c-0.1,0.1-0.1,0.2-0.2,0.4c-0.1,0.2-0.2,0.3-0.3,0.5c-0.1,0.2-0.2,0.4-0.3,0.6c-0.1,0.2-0.2,0.4-0.3,0.6
				c-0.1,0.2-0.2,0.4-0.2,0.5c-0.1,0.4-0.2,0.6-0.2,0.8c0,0.2,0.1,0.2,0.2,0.2c0.1,0,0.3,0,0.4-0.1c0.1-0.1,0.3-0.2,0.5-0.3
				c0.2-0.1,0.3-0.3,0.5-0.4c0.1-0.2,0.3-0.3,0.4-0.5c0.1-0.2,0.2-0.3,0.3-0.4c0.1-0.1,0.1-0.2,0.2-0.2c0-0.1,0.1-0.1,0.1,0
				C95.3,41.5,95.3,41.6,95.3,41.7z"/>
			<path class="st0" d="M100.5,41.7c0,0.1,0,0.1-0.1,0.2c0,0.1-0.1,0.2-0.2,0.3c-0.1,0.1-0.2,0.2-0.3,0.3c-0.1,0.1-0.2,0.2-0.3,0.4
				c-0.1,0.1-0.3,0.2-0.4,0.4c-0.2,0.1-0.4,0.2-0.6,0.4c-0.2,0.1-0.5,0.2-0.7,0.3c-0.2,0.1-0.5,0.1-0.7,0.1c-0.2,0-0.4,0-0.6,0
				c-0.2,0-0.4,0-0.6,0c-0.5,0.1-0.9,0-1.2-0.2c-0.2,0.4-0.5,0.8-0.8,1.4c-0.3,0.5-0.7,1.1-1.1,1.7c-0.4,0.6-0.8,1.2-1.2,1.9
				c-0.4,0.7-0.8,1.3-1.2,2c0,0.1-0.1,0.1-0.1,0.1c-0.1,0-0.1,0.1-0.2,0C90,51,90,51,90,50.9c0-0.1,0-0.2,0.1-0.3
				c0.6-1.1,1.2-2,1.6-2.8c0.4-0.8,0.8-1.4,1.2-2c0.3-0.6,0.6-1,0.8-1.4c0.2-0.4,0.4-0.7,0.6-0.9c0.2-0.3,0.4-0.7,0.6-1
				c0.2-0.3,0.3-0.6,0.4-0.8c0.1-0.2,0.2-0.3,0.2-0.4c0-0.1,0.1-0.2,0.2-0.3c0.1-0.1,0.1-0.2,0.2-0.3c0.1-0.1,0.1-0.2,0.2-0.3
				c0-0.1,0.1-0.1,0.2-0.2c0.1-0.1,0.2-0.1,0.2-0.1c0.1,0,0.2-0.1,0.2-0.1c0.1,0,0.1,0,0.1,0c0,0,0.1,0.1,0.1,0.1
				c0.2-0.2,0.5-0.3,0.7-0.4c0.3-0.1,0.5-0.1,0.7-0.1c0.1,0,0.1,0,0.2,0c0.1,0,0.1,0,0.2,0.1c0.1,0,0.2,0.1,0.2,0.2
				c0.1,0.1,0.1,0.2,0.2,0.3c0,0.1,0.1,0.3,0.1,0.4c0,0.2,0,0.4-0.1,0.6c-0.1,0.4-0.3,0.7-0.4,1c-0.2,0.3-0.4,0.5-0.7,0.8
				c0,0-0.1,0.1-0.1,0.1c-0.1,0.1-0.1,0.1-0.2,0.2c-0.1,0.1-0.2,0.2-0.4,0.2c-0.1,0.1-0.3,0.2-0.5,0.3c0.1,0,0.2,0,0.2,0
				c0.1,0,0.2,0,0.3,0c0.1,0,0.2,0,0.2,0c0.1,0,0.1,0,0.2,0c0.2-0.1,0.5-0.1,0.7-0.2c0.2-0.1,0.5-0.2,0.7-0.3
				c0.2-0.1,0.3-0.3,0.5-0.4c0.2-0.2,0.3-0.3,0.5-0.6c0.2-0.2,0.3-0.4,0.4-0.5c0.1-0.1,0.1-0.2,0.2-0.2
				C100.5,41.5,100.5,41.6,100.5,41.7z M95.4,43.3c0.4,0.3,0.9,0.3,1.4,0c0.3-0.1,0.5-0.3,0.7-0.5c0.2-0.2,0.4-0.4,0.5-0.6
				c0.1-0.2,0.2-0.4,0.3-0.7c0.1-0.2,0.1-0.5,0.1-0.7c0-0.3,0-0.5-0.2-0.6c-0.1-0.1-0.3-0.2-0.6-0.2c-0.1,0-0.3,0-0.4,0.1
				c-0.1,0.1-0.3,0.1-0.4,0.2c-0.1,0.1-0.2,0.2-0.3,0.3c-0.1,0.1-0.2,0.3-0.3,0.4c-0.2,0.3-0.3,0.6-0.5,0.9
				c-0.2,0.3-0.3,0.6-0.5,0.9c0,0.1,0.1,0.1,0.1,0.2C95.4,43.2,95.4,43.2,95.4,43.3z"/>
			<path class="st0" d="M105.7,41.7c0,0.1,0,0.2-0.1,0.3c-0.1,0.1-0.1,0.2-0.2,0.3c-0.4,0.5-0.7,0.8-1,1.1c-0.3,0.3-0.6,0.5-0.8,0.6
				c-0.1,0-0.3,0.1-0.4,0.1c-0.1,0-0.2,0-0.3,0c-0.1,0-0.2-0.1-0.2-0.2c0-0.1-0.1-0.2,0-0.4c0-0.1,0-0.2,0-0.3
				c0-0.1,0.1-0.2,0.1-0.3c-0.2,0.2-0.4,0.4-0.5,0.6c-0.2,0.1-0.3,0.3-0.5,0.4c-0.2,0.2-0.4,0.3-0.7,0.3c-0.2,0.1-0.4,0.1-0.6,0
				c-0.2,0-0.3-0.1-0.5-0.3c-0.1-0.1-0.2-0.3-0.2-0.6c0-0.2,0-0.5,0.1-0.7c0.1-0.2,0.2-0.5,0.3-0.7c0.1-0.2,0.3-0.4,0.4-0.6
				c0.2-0.2,0.3-0.4,0.5-0.5c0.2-0.1,0.3-0.3,0.5-0.4c0.2-0.1,0.4-0.2,0.6-0.3c0.2-0.1,0.4-0.2,0.5-0.2c0.2-0.1,0.3-0.1,0.4-0.1
				c0.1,0,0.2,0,0.3,0c0.1,0,0.2,0,0.3,0.1c0.1,0,0.2,0.1,0.3,0.1c0.1,0,0.1,0.1,0.1,0.1c0.1,0,0.2,0,0.3,0c0.1,0,0.1,0,0.1,0.1
				c0,0-0.1,0.2-0.2,0.3c-0.1,0.2-0.2,0.4-0.3,0.6c-0.1,0.2-0.2,0.5-0.4,0.8c-0.1,0.3-0.2,0.5-0.3,0.8c-0.1,0.4-0.2,0.6-0.2,0.8
				c0,0.2,0.1,0.2,0.2,0.2c0.1,0,0.3,0,0.4-0.1c0.2-0.1,0.3-0.2,0.5-0.3c0.2-0.1,0.3-0.3,0.5-0.4c0.1-0.2,0.3-0.3,0.4-0.5
				c0.1-0.2,0.3-0.3,0.3-0.4c0.1-0.1,0.2-0.2,0.2-0.3c0-0.1,0.1-0.1,0.1,0C105.8,41.5,105.8,41.6,105.7,41.7z M101.1,43.6
				c0.2,0,0.3,0,0.5-0.1c0.2-0.1,0.4-0.2,0.5-0.4c0.2-0.1,0.4-0.3,0.5-0.5c0.2-0.2,0.3-0.4,0.5-0.5c0-0.1,0.1-0.2,0.1-0.3
				c0.1-0.1,0.1-0.3,0.2-0.4c0.1-0.1,0.1-0.3,0.2-0.4c0.1-0.1,0.1-0.2,0.2-0.3c0-0.1,0.1-0.1,0.1-0.2l0.1-0.1
				c-0.2-0.1-0.3-0.2-0.5-0.3c-0.2-0.1-0.4-0.1-0.7,0c-0.2,0-0.5,0.1-0.7,0.3c-0.2,0.1-0.5,0.3-0.7,0.6c-0.2,0.3-0.4,0.5-0.5,0.8
				c-0.1,0.3-0.2,0.6-0.2,0.8c0,0.3,0,0.5,0.1,0.7C100.7,43.5,100.8,43.6,101.1,43.6z"/>
			<path class="st0" d="M110.9,41.7c0,0.1,0,0.1-0.1,0.2c0,0.1-0.1,0.2-0.2,0.3c-0.2,0.3-0.4,0.5-0.6,0.7c-0.2,0.2-0.5,0.4-0.7,0.6
				c-0.3,0.2-0.5,0.3-0.8,0.5c-0.3,0.2-0.6,0.3-0.9,0.5c-0.2,0.3-0.3,0.6-0.5,1c-0.2,0.4-0.4,0.8-0.7,1.2c-0.3,0.4-0.5,0.9-0.8,1.3
				c-0.3,0.4-0.5,0.8-0.7,1.1c-0.1,0.2-0.3,0.4-0.4,0.5c-0.1,0.2-0.3,0.3-0.4,0.4c-0.2,0.1-0.3,0.3-0.5,0.4
				c-0.2,0.1-0.4,0.2-0.6,0.4c-0.2,0.1-0.4,0.2-0.6,0.2c-0.2,0-0.5,0-0.7,0c-0.2,0-0.4-0.1-0.6-0.2c-0.2-0.1-0.3-0.3-0.3-0.5
				c-0.1-0.2,0-0.5,0.1-0.7c0.1-0.3,0.2-0.5,0.4-0.8c0.2-0.3,0.4-0.5,0.6-0.7c0.2-0.2,0.4-0.4,0.6-0.6c0.4-0.4,0.8-0.7,1.2-1
				c0.4-0.3,0.8-0.5,1.2-0.8c0.4-0.2,0.8-0.5,1.2-0.7c0.4-0.2,0.7-0.4,1.1-0.7c0.1-0.1,0.1-0.3,0.2-0.4c0.1-0.2,0.2-0.3,0.3-0.5
				l0.1-0.3c-0.3,0.3-0.5,0.5-0.9,0.6c-0.3,0.2-0.6,0.2-0.9,0.3c-0.3,0-0.5,0-0.7-0.2c-0.2-0.1-0.3-0.4-0.3-0.7
				c0-0.3,0.1-0.5,0.2-0.7c0.1-0.2,0.2-0.5,0.3-0.7c0.1-0.2,0.3-0.4,0.4-0.6c0.2-0.2,0.3-0.4,0.5-0.5c0.2-0.1,0.3-0.3,0.5-0.4
				c0.2-0.1,0.4-0.2,0.6-0.3c0.2-0.1,0.4-0.2,0.5-0.2c0.2-0.1,0.3-0.1,0.4-0.1c0.1,0,0.2,0,0.3,0c0.1,0,0.2,0.1,0.3,0.1
				c0.1,0,0.2,0.1,0.3,0.1c0.1,0,0.1,0.1,0.2,0.1c0,0,0.1,0,0.1,0c0,0,0.1,0,0.1,0c0.1,0,0.2,0,0.1,0.1c0,0-0.1,0.1-0.2,0.3
				c-0.1,0.2-0.2,0.4-0.3,0.6c-0.1,0.2-0.3,0.5-0.4,0.8c-0.2,0.3-0.3,0.6-0.5,0.9c-0.2,0.3-0.3,0.6-0.4,0.8
				c-0.1,0.3-0.3,0.5-0.4,0.7c0.2-0.1,0.5-0.3,0.8-0.4c0.3-0.1,0.5-0.3,0.8-0.5c0.3-0.2,0.5-0.3,0.7-0.5c0.2-0.2,0.4-0.4,0.6-0.6
				c0.1-0.1,0.2-0.2,0.2-0.3c0.1-0.1,0.1-0.1,0.1-0.2c0,0,0,0,0,0C111,41.6,111,41.6,110.9,41.7z M105.8,46.9
				c0.1-0.2,0.2-0.4,0.3-0.6c0.1-0.2,0.2-0.4,0.3-0.6c0.1-0.2,0.2-0.4,0.3-0.5c0.1-0.2,0.1-0.3,0.2-0.4c-0.6,0.4-1.2,0.7-1.8,1.1
				c-0.6,0.4-1.2,0.8-1.8,1.3c-0.2,0.1-0.3,0.3-0.5,0.4c-0.2,0.2-0.3,0.3-0.4,0.5c-0.1,0.2-0.3,0.3-0.4,0.5
				c-0.1,0.2-0.2,0.3-0.3,0.4c-0.2,0.3-0.3,0.5-0.3,0.8c0,0.2,0,0.4,0.2,0.6c0.1,0.1,0.2,0.2,0.4,0.3c0.2,0,0.4,0,0.7-0.1
				c0.2-0.1,0.4-0.2,0.5-0.3c0.2-0.1,0.3-0.2,0.5-0.4c0.1-0.1,0.3-0.3,0.4-0.4c0.1-0.1,0.2-0.3,0.3-0.4c0.1-0.1,0.2-0.3,0.3-0.4
				c0.1-0.2,0.2-0.4,0.4-0.5c0.1-0.2,0.3-0.4,0.4-0.6C105.5,47.2,105.7,47.1,105.8,46.9z M106.3,43.6c0.1,0,0.3,0,0.5-0.1
				c0.2-0.1,0.3-0.2,0.5-0.3c0.2-0.1,0.3-0.3,0.5-0.5c0.2-0.2,0.3-0.3,0.4-0.5c0.1-0.2,0.2-0.4,0.3-0.6c0.1-0.2,0.2-0.3,0.3-0.5
				c0.1-0.2,0.1-0.3,0.2-0.4c0.1-0.1,0.1-0.2,0.1-0.3c-0.2-0.1-0.3-0.2-0.5-0.3c-0.2-0.1-0.4-0.1-0.7,0c-0.2,0-0.5,0.1-0.7,0.3
				c-0.2,0.1-0.5,0.3-0.7,0.6c-0.2,0.2-0.4,0.5-0.5,0.8c-0.1,0.3-0.2,0.6-0.2,0.8c0,0.3,0,0.5,0.1,0.7
				C106,43.5,106.1,43.6,106.3,43.6z"/>
			<path class="st0" d="M114.1,40.6c-0.2,0.1-0.5,0.3-0.7,0.4c-0.2,0.1-0.5,0.2-0.7,0.3c-0.2,0.1-0.5,0.2-0.8,0.3
				c-0.3,0.1-0.6,0.2-0.9,0.4c-0.1,0.2-0.1,0.3-0.1,0.5c0,0.2,0,0.3,0,0.4c0,0.1,0.1,0.2,0.2,0.3c0.1,0.1,0.2,0.2,0.2,0.3
				c0.2,0.1,0.4,0.2,0.6,0.2c0.2,0,0.5,0,0.8-0.1c0.3-0.1,0.6-0.2,1-0.4c0.4-0.2,0.7-0.5,1-0.8c0.2-0.2,0.3-0.4,0.4-0.5
				c0.1-0.1,0.2-0.2,0.2-0.3c0,0,0,0.1-0.1,0.3c0,0.1,0,0.1-0.1,0.2c0,0.1-0.1,0.2-0.2,0.3c-0.1,0.1-0.2,0.2-0.3,0.3
				c-0.1,0.1-0.3,0.3-0.5,0.4c-0.2,0.2-0.4,0.3-0.6,0.4c-0.2,0.1-0.4,0.2-0.6,0.3c-0.2,0.1-0.4,0.1-0.6,0.2c-0.2,0-0.5,0.1-0.7,0.1
				c-0.2,0-0.5,0-0.7-0.1c-0.2-0.1-0.4-0.2-0.5-0.3c-0.2-0.3-0.3-0.7-0.2-1.1c0.1-0.4,0.4-0.9,0.8-1.5c0.1-0.1,0.1-0.1,0.2-0.2
				c0.1-0.1,0.1-0.1,0.2-0.2c0.1-0.1,0.3-0.3,0.5-0.4c0.2-0.1,0.4-0.2,0.5-0.3c0.2-0.1,0.4-0.2,0.5-0.2c0.2-0.1,0.3-0.1,0.4-0.1
				c0.1,0,0.2,0,0.4,0c0.1,0,0.2,0,0.3,0c0.1,0,0.2,0.1,0.2,0.1c0.1,0,0.1,0.1,0.1,0.2c0,0.1-0.1,0.2-0.1,0.3
				C114.4,40.4,114.3,40.5,114.1,40.6z M113.8,40.4c0.1,0,0.1-0.1,0.1-0.2c0-0.1,0-0.1,0-0.1c0,0-0.1-0.1-0.1-0.1
				c-0.1,0-0.1,0-0.2,0c-0.3,0-0.7,0.1-1,0.3c-0.3,0.2-0.6,0.4-0.9,0.7c0,0-0.1,0.1-0.1,0.2c-0.1,0.1-0.1,0.1-0.1,0.2
				c0,0.1-0.1,0.1-0.1,0.2c0.5-0.2,1-0.4,1.4-0.6C113.1,40.8,113.5,40.6,113.8,40.4z"/>
		</g>
		<g>
			<path d="M130.1,26.4c-0.5,0-0.9-0.2-1.3-0.5c-0.3-0.3-0.5-0.8-0.5-1.2c0-0.5,0.2-0.9,0.5-1.2c0.3-0.3,0.8-0.5,1.3-0.5
				c0.5,0,0.9,0.2,1.2,0.5c0.3,0.3,0.5,0.7,0.5,1.2c0,0.5-0.2,0.9-0.5,1.2C131,26.2,130.6,26.4,130.1,26.4z M128.7,24.6
				c0,0.4,0.1,0.7,0.4,1c0.3,0.3,0.6,0.4,1,0.4c0.4,0,0.7-0.1,1-0.4c0.3-0.3,0.4-0.6,0.4-1c0-0.4-0.1-0.8-0.4-1
				c-0.3-0.3-0.6-0.4-1-0.4c-0.4,0-0.7,0.1-1,0.4C128.8,23.9,128.7,24.2,128.7,24.6z M129.7,25.6h-0.3v-2h0.8c0.5,0,0.7,0.2,0.7,0.6
				c0,0.3-0.2,0.5-0.5,0.6l0.6,0.9h-0.3l-0.5-0.9h-0.4V25.6z M130.1,24.5c0.1,0,0.3,0,0.3-0.1c0.1,0,0.1-0.1,0.1-0.3
				c0-0.1,0-0.2-0.1-0.2c-0.1-0.1-0.2-0.1-0.3-0.1h-0.4v0.6H130.1z"/>
		</g>
		<path class="st0" d="M125.6,31.3c-0.1,0-0.1-0.1-0.1-0.1c0,0,0-0.1,0-0.1c0.1,0,0.1-0.1,0.2-0.2c0.1-0.1,0.2-0.1,0.3-0.2l0.5-0.3
			l0.4-0.2l0.5-0.1c0.6-0.1,0.7-0.1,0.2,0.2c-0.5,0.3-0.7,0.4-0.8,0.5c-0.1,0.1-0.2,0.1-0.2,0.2c-0.1,0.1-0.1,0.1-0.1,0.2
			c0,0.1-0.1,0.1-0.1,0.2c-0.1,0.1-0.1,0.1-0.2,0.1c-0.1,0.1-0.2,0.1-0.3,0C125.7,31.4,125.6,31.4,125.6,31.3z"/>
	</g>
	<path class="st1" d="M81.4,11.1c0,0-0.2-0.8,0.7-0.8c0.8,0,0.8,0.9,0.7,1.3s0,0.8,0.4,0.9c0.4,0.2,0.6,0,0.5,0.5
		c-0.1,0.5-0.8,0.5-0.7,1c0.1,0.5,0.1,0.9-0.5,1.1c-0.5,0.2-0.9-0.5-0.9-0.5s-0.3,1-0.7,1c-0.4,0-0.8-0.5-0.4-1.2
		c0.4-0.8,0.2-0.9-0.1-0.8c-0.3,0.1-1,0-0.8-1c0,0,0-0.6,0.6-0.6S81.6,12.5,81.4,11.1z"/>
	<path class="st2" d="M76.1,10.4c0,0,0.7-0.1,0.9-0.4s0.4-0.5,0.7-0.4c0.4,0.1,0.2,0.5,0.3,0.8c0.1,0.3,0.2,0.4,0.6,0.1
		c0.4-0.2,1.5,0.5-0.1,1.2c0,0-0.7,0.1-0.5,0.5c0.2,0.4,0.6,0.4,0.3,1c-0.4,0.6-1.2,0.5-1.4-0.1c-0.2-0.7-0.9-0.2-1,0.1
		c-0.1,0.3-1.2,0.7-1.3-0.5c0,0,0.1-0.6,0.5-0.7s0.8-0.5,0.4-1C75,10.4,75.7,9.9,76.1,10.4z"/>
	<path class="st3" d="M70.9,11c0,0,3.6-5.1,7.8-5.6c4.2-0.5,7.7,2.8,7.9,5.9S83,20.9,82.3,22l-0.6,0.9l-1,1.7l-0.8,0.8h-0.1
		l-0.2-0.2l-0.3,0.2l0,0.3L79.1,26l-0.3,0.3l-0.2,0.3l-0.2,0.3l-0.2,0.5L77.9,28l-0.4,0.2l-0.2-0.1l0,0.5l-0.2,0.2c0,0,0,0-0.1,0.2
		c-0.1,0.1-0.2,0.4-0.2,0.4l-0.1,0.3c0,0,0,0.3,0,0.3c0,0.1-0.1,0.3-0.1,0.4c0,0.1-0.1,0.4-0.1,0.4s-0.2,0.4-0.2,0.5
		s-0.1,0.6-0.1,0.6l0.1,0.7l0.2,0.8l0.5,0.9l0.2,0.5l0.3,0.5l0.3,0.2l0.2,0.2l0.1,0.5l0,0.2l0.3,0.5L79,37l0.1,0.2l0.3,0.1l0.2,0.1
		l0.1,0.3L80,38l0.3,0.1l0.1,0.3l0,0.3l-0.2,0.2l-0.4-0.4l-0.2-0.1l-0.2-0.3l-0.2-0.2L79,37.6l-0.2-0.2l-0.4-0.1l-0.2,0.1L78.2,37
		l-0.3-0.1l-0.3-0.2l-0.1-0.3l0-0.1L77.2,36h-0.1l-0.2-0.2l-0.2-0.2l-0.2-0.3L76.2,35l-0.1-0.3l-0.2-0.5l-0.1-0.2l-0.2-0.3l0-0.3
		l-0.1-0.3L75.3,33l-0.1-0.2l-0.1-0.3l-0.1-1L75,30.9l0.1-0.6l0.1-0.4l0.2-0.7l0.1-0.4l0.2-0.4l0-0.5l0.3-0.7l0.3-0.3l0.5-0.4
		c0,0,0.2-0.2,0.3-0.2c0.1,0,0.2-0.3,0.2-0.3l0.1-0.5l0.3-0.2L78,25l0.1-0.2l0.4-0.3l0.2-0.1l0.2-0.2l0.3-0.4l0.2-0.4l0.4-0.5
		l0.1-0.4l0.3-0.4l0.2-0.3l0.1-0.4l0.3-0.2l0.3-0.3l0.4-0.5L82,20l0.3-0.3l0.1-0.3L82.3,19l0.3-0.1l0.1-0.3l0.1-0.3l0.1-0.2l0.2-0.3
		l0.1-0.2l0.2-0.5l0.2-0.1l0-0.6l0.1-0.2l0.1-0.4l0.1-0.5l0-0.4l0.1-0.3l0.1-0.4l0.1-0.3l0.1-0.4l0.1-0.3l0.2-0.6v-0.2l0.1-0.5
		l0-0.4l0-0.5l-0.1-0.5c0,0-0.5-1.7-3.1-2.6c-2.1-0.7-4.1,0-4.8,0.7c-1,1-2.1,1.8-2.4,2c-0.3,0.2-1.7,0.8-1.8,2.3
		c0,0,0.1,0.2,0.1,0.3c-0.1,0.2-0.4,0.4-0.5,0.7s-0.2,0.4-0.3,0.9s-0.6,2-1.4,1.8c0,0-0.1-0.2-0.1-0.5s-0.1-0.2-0.1-0.7
		c0-0.5-0.2-0.7-0.3-1.2s-0.9-3.4-2.1-3.7c-0.9-0.2-2.6,0.3-3.4,1c-0.8,0.7-2,1.9-2.8,3.5s-0.8,3.2,0.3,5.1s2,2.7,2,2.7l0.3,0.2
		l0.5,0.5l0.6,0.5l0.3,0.2l0.4,0.2l0.2,0.2l0.5,0.4l0.6,0.6l0.3,0.2l0.5,0.3l0.4,0.3l0.7,0.4l0.4,0.3l0.4,0.3l0.3,0.2l0.7,0.5
		l0.4,0.4l0.5,0.5l0.5,0.4l0.5,0.5l0.6,0.7l0.2,0.5l0,0.2l-0.2,0l0,0.3l0.3,0.5l0.5,0.4l-0.1,0.4l-0.3-0.2l-0.3-0.6L73.4,32L73,31.6
		l0-0.5l0-0.4l-0.5-0.2l-0.6-0.3l-0.2-0.3l-0.3-0.5L71,29.2l-0.4-0.1h-0.1l-0.2-0.1l-0.2-0.2l-0.1-0.2l-0.4-0.1l-0.4-0.1l-0.6-0.3
		L68.5,28l-0.4-0.2l-0.3-0.2l-0.3-0.1l-0.2-0.1L67,27.2L66.8,27l-0.2-0.2l-0.4-0.2l-0.3-0.1l-0.2-0.1l-0.1-0.2l-0.3-0.1L64.9,26
		l-0.2-0.1l-0.1-0.2L64,25.4l-0.6-0.4c0,0-0.7-0.7-1.4-1.4s-1.4-1.6-1.7-2.2c-0.3-0.6-0.8-1.7-0.8-1.9c-0.1-0.2-0.1-0.3-0.1-0.3
		l-0.2-0.5L59,17.8v-0.3v-0.9l0.2-0.8l0.3-1.4c0,0,0.7-2.2,3.6-4.6s5.2-1.5,6.2-0.5C70.3,10.3,70.6,11,70.9,11z"/>
</g>
</svg>
